<?xml version="1.0" encoding="utf-8"?>
<!-- Generator: Adobe Illustrator 19.2.1, SVG Export Plug-In . SVG Version: 6.00 Build 0)  -->
<svg version="1.1" id="Layer_1" xmlns="http://www.w3.org/2000/svg" xmlns:xlink="http://www.w3.org/1999/xlink" x="0px" y="0px"
	 viewBox="0 0 693.7 191" style="enable-background:new 0 0 693.7 191;" xml:space="preserve">
<style type="text/css">
	.st0{fill:#66FFCC;}
	.st1{fill:url(#SVGID_1_);}
	.st2{fill:url(#SVGID_2_);}
	.st3{fill:#45314F;}
	.st4{fill:#5B5B5B;}
</style>
<g>
	<g>
		<rect x="93.2" y="55.2" class="st0" width="86.2" height="25.1"/>
		<polygon class="st0" points="179.4,122.3 93.2,122.4 93.2,97.3 179.4,97.3 		"/>
		
			<linearGradient id="SVGID_1_" gradientUnits="userSpaceOnUse" x1="801.6449" y1="771.0555" x2="770.3174" y2="836.4794" gradientTransform="matrix(1 0 0 -1 -641.1312 952.533)">
			<stop  offset="0.4763" style="stop-color:#66FBCC"/>
			<stop  offset="0.996" style="stop-color:#33C29F"/>
		</linearGradient>
		<polygon class="st1" points="179.4,122.3 93.2,164.5 93.2,139.4 179.4,97.3 		"/>
		
			<linearGradient id="SVGID_2_" gradientUnits="userSpaceOnUse" x1="801.6536" y1="813.1372" x2="770.3262" y2="878.5611" gradientTransform="matrix(1 0 0 -1 -641.1312 952.533)">
			<stop  offset="0.4763" style="stop-color:#66FBCC"/>
			<stop  offset="0.996" style="stop-color:#33C29F"/>
		</linearGradient>
		<polygon class="st2" points="179.4,80.3 93.2,122.4 93.2,97.3 179.4,55.2 		"/>
	</g>
	<g>
		<polygon class="st3" points="217.6,81.6 201.5,55.3 198,55.3 198,95.8 202.8,95.8 202.8,66.4 217.6,90.7 232.4,66.4 232.4,95.8 
			237.2,95.8 237.2,55.3 233.7,55.3 		"/>
		<path class="st3" d="M276,79c0,7.5-4.5,12.1-11.7,12.1s-11.6-4.6-11.6-12.1V55.3h-4.8v23.9c0,10,6.6,16.7,16.4,16.7
			c9.9,0,16.6-6.7,16.6-16.7V55.3H276V79z"/>
		<path class="st3" d="M309.6,59.9c4.9,0,9.5,2.2,12.6,6l0.9,1.1l3.7-3.2l-0.9-1.1c-4.1-4.9-10.1-7.7-16.4-7.7
			c-11.6,0-21.1,9.2-21.1,20.5c0,11.2,9.5,20.4,21.1,20.4c6.4,0,12.3-2.8,16.4-7.6l0.9-1.1l-3.7-3.2l-0.9,1.1
			c-3.1,3.8-7.7,5.9-12.6,5.9c-8.9,0-16.2-7-16.2-15.6C293.4,66.9,300.7,59.9,309.6,59.9z"/>
		<polygon class="st3" points="361.4,75.3 339.6,75.3 339.6,55.3 334.8,55.3 334.8,95.8 339.6,95.8 339.6,80 361.4,80 361.4,95.8 
			366.2,95.8 366.2,55.3 361.4,55.3 		"/>
		<path class="st3" d="M394.8,55.3h-3.3l-18.2,40.4h5.3l4.8-10.9H403l4.9,10.9h5.2L394.8,55.3z M385.3,80.3l7.8-17.6l7.9,17.6H385.3
			z"/>
	</g>
	<g>
		<polygon class="st4" points="441.2,81.1 425.1,54.8 421.6,54.8 421.6,95.3 426.4,95.3 426.4,65.9 441.2,90.2 456,65.9 456,95.3 
			460.8,95.3 460.8,54.8 457.3,54.8 		"/>
		<polygon class="st4" points="476.3,77.9 495.8,77.9 495.8,73.3 476.3,73.3 476.3,59.6 499.1,59.6 499.1,54.8 471.5,54.8 
			471.5,95.3 500.2,95.3 500.2,90.6 476.3,90.6 		"/>
		<path class="st4" d="M521.7,54.8h-13v40.4h1.4H523c10.7-0.7,19-9.6,19-20.2C542,63.9,532.9,54.8,521.7,54.8z M513.5,90.6v-31h8.2
			c8.5,0,15.5,7,15.5,15.5c0,8-6.3,14.7-14.5,15.5H513.5z"/>
		<rect x="550.7" y="54.8" class="st4" width="4.8" height="40.4"/>
		<path class="st4" d="M583.2,54.8h-3.3l-18.2,40.4h5.3l4.8-10.9h19.6l4.6,10.9h5.2L583.2,54.8z M573.7,79.8l7.8-17.6l7.9,17.6
			H573.7z"/>
	</g>
	<g>
		<path class="st3" d="M198.2,108.5l1.5-0.5v14.2h-1.5V108.5z"/>
		<path class="st3" d="M210,111.7v10.5h-1.5V108l10.3,10.8v-10.2l1.5-0.5v14.4L210,111.7z"/>
		<path class="st3" d="M235.3,109.6v12.6h-1.5v-12.6H229l0.5-1.4h10.7l-0.5,1.4H235.3z"/>
		<path class="st3" d="M256.4,120.8l-0.5,1.4h-8.1v-14.1h8.6l-0.5,1.4h-6.6v5h5.8l-0.5,1.4h-5.3v4.9L256.4,120.8z"/>
		<path class="st3" d="M272.9,112.1c0,2.4-1.3,3.4-3.1,3.7l3.8,5.6l-1.2,1l-4.3-6.4c-0.1,0-0.2,0-0.3,0h-2.6v6.2h-1.5v-14h4.1
			C270.6,108.2,272.9,108.9,272.9,112.1z M265.3,114.6h2.6c1.9,0,3.4-0.6,3.4-2.5c0-2-1.5-2.5-3.4-2.5h-2.6V114.6z"/>
		<path class="st3" d="M289.2,119.1h-6.3l-1.3,3.1h-1.5l6-14.2l6,14.2h-1.5L289.2,119.1z M286,111.6l-2.6,6.1h5.2L286,111.6z"/>
		<path class="st3" d="M305.3,122.5c-4,0-7.3-3.3-7.3-7.3s3.3-7.3,7.3-7.3c0,0,2.2-0.1,4.3,1.4v2c0,0-1.5-1.9-4.3-1.9
			c-3.2,0-5.8,2.7-5.8,5.9s2.5,5.9,5.8,5.9c2.6,0,4.1-1.7,4.2-1.9v2C307.5,122.6,305.3,122.5,305.3,122.5z"/>
		<path class="st3" d="M324,109.6v12.6h-1.5v-12.6h-4.8l0.5-1.4h10.7l-0.5,1.4H324z"/>
		<path class="st3" d="M336.6,108.5l1.5-0.5v14.2h-1.5V108.5z"/>
		<path class="st3" d="M346.6,108.5l1.5-0.5l4.5,10.8l4.5-10.8l1.5,0.5l-6.1,13.9L346.6,108.5z"/>
		<path class="st3" d="M374.9,120.8l-0.5,1.4h-8.1v-14.1h8.6l-0.5,1.4h-6.6v5h5.8l-0.5,1.4h-5.3v4.9L374.9,120.8z"/>
		<path class="st3" d="M403.9,114.2c1.8,0.6,4.6,1.5,4.6,4.1c0,2.7-1.7,4.1-5.2,4.1c-2.1,0-3.6-0.8-4.5-1.5v-1.8
			c0.9,0.8,3,1.8,4.5,1.8c2.5,0,3.5-1.1,3.5-2.6s-2-2.1-3.7-2.7c-1.6-0.5-4.2-1.5-4.2-3.9c0-2.8,2.3-3.8,4.5-3.8c2,0,3.4,0.7,4,1.4
			v1.7c-0.6-0.7-2.1-1.5-4-1.5c-1.8,0-2.9,0.7-2.9,2.4C400.5,113,402.3,113.6,403.9,114.2z"/>
		<path class="st3" d="M421.8,109.6v12.6h-1.5v-12.6h-4.8l0.5-1.4h10.7l-0.5,1.4H421.8z"/>
		<path class="st3" d="M433.7,115.2c0-4,3.3-7.3,7.3-7.3s7.3,3.3,7.3,7.3s-3.3,7.3-7.3,7.3S433.7,119.2,433.7,115.2z M446.8,115.2
			c0-3.2-2.5-5.9-5.8-5.9c-3.2,0-5.8,2.7-5.8,5.9s2.5,5.9,5.8,5.9C444.2,121.1,446.8,118.4,446.8,115.2z"/>
		<path class="st3" d="M465.6,112.1c0,2.4-1.3,3.4-3.1,3.7l3.8,5.6l-1.2,1l-4.3-6.4c-0.1,0-0.2,0-0.3,0H458v6.2h-1.5v-14h4.1
			C463.3,108.2,465.6,108.9,465.6,112.1z M458,114.6h2.6c1.9,0,3.4-0.6,3.4-2.5c0-2-1.5-2.5-3.4-2.5H458V114.6z"/>
		<path class="st3" d="M479.3,122.2h-1.5v-6.3l-5-7.4l1.5-0.5l4.2,6.3l4.2-6.3l1.5,0.5l-5,7.4L479.3,122.2z"/>
		<path class="st3" d="M497.2,109.6v12.6h-1.5v-12.6h-4.8l0.5-1.4h10.7l-0.5,1.4H497.2z"/>
		<path class="st3" d="M518.3,120.8l-0.5,1.4h-8.1v-14.1h8.6l-0.5,1.4h-6.6v5h5.8l-0.5,1.4h-5.3v4.9L518.3,120.8z"/>
		<path class="st3" d="M534.2,120.8l-0.5,1.4h-8.1v-13.8l1.5-0.5v12.9H534.2z"/>
		<path class="st3" d="M550.5,120.8l-0.5,1.4h-8.1v-13.8l1.5-0.5v12.9H550.5z"/>
		<path class="st3" d="M558.3,108.5l1.5-0.5v14.2h-1.5V108.5z"/>
		<path class="st3" d="M570,111.7v10.5h-1.5V108l10.3,10.8v-10.2l1.5-0.5v14.4L570,111.7z"/>
		<path class="st3" d="M595.8,122.5c-4,0-7.3-3.3-7.3-7.3s3.2-7.3,7.3-7.3c0,0,2.4-0.2,4.5,1.5v2c0,0-1.5-2.1-4.5-2.1
			c-3.2,0-5.7,2.7-5.7,5.9s2.5,5.9,5.8,5.9c1.8,0,3.1-0.9,3.8-1.5V117h-3.6l0.5-1.4h4.7v4.5C598.8,122.6,595.8,122.5,595.8,122.5z"
			/>
	</g>
</g>
</svg>
