<?xml version="1.0" encoding="utf-8"?>
<!-- Generator: Adobe Illustrator 19.2.1, SVG Export Plug-In . SVG Version: 6.00 Build 0)  -->
<svg version="1.1" id="Layer_1" xmlns="http://www.w3.org/2000/svg" xmlns:xlink="http://www.w3.org/1999/xlink" x="0px" y="0px"
	 viewBox="0 0 693.7 490.5" style="enable-background:new 0 0 693.7 490.5;" xml:space="preserve">
<style type="text/css">
	.st0{fill:#66FFCC;}
	.st1{fill:url(#SVGID_1_);}
	.st2{fill:url(#SVGID_2_);}
	.st3{fill:#45314F;}
	.st4{fill:#5B5B5B;}
</style>
<g>
	<g>
		<rect x="93.2" y="191.1" class="st0" width="86.2" height="25.1"/>
		<polygon class="st0" points="179.4,258.2 93.2,258.3 93.2,233.2 179.4,233.2 		"/>
		
			<linearGradient id="SVGID_1_" gradientUnits="userSpaceOnUse" x1="801.6694" y1="-417.0672" x2="770.3419" y2="-482.4911" gradientTransform="matrix(1 0 0 1 -641.1312 734.423)">
			<stop  offset="0.4763" style="stop-color:#66FBCC"/>
			<stop  offset="0.996" style="stop-color:#33C29F"/>
		</linearGradient>
		<polygon class="st1" points="179.4,258.2 93.2,300.4 93.2,275.3 179.4,233.2 		"/>
		
			<linearGradient id="SVGID_2_" gradientUnits="userSpaceOnUse" x1="801.6693" y1="-459.1447" x2="770.3419" y2="-524.5686" gradientTransform="matrix(1 0 0 1 -641.1312 734.423)">
			<stop  offset="0.4763" style="stop-color:#66FBCC"/>
			<stop  offset="0.996" style="stop-color:#33C29F"/>
		</linearGradient>
		<polygon class="st2" points="179.4,216.2 93.2,258.3 93.2,233.2 179.4,191.1 		"/>
	</g>
	<g>
		<polygon class="st3" points="217.6,217.5 201.5,191.2 198,191.2 198,231.7 202.8,231.7 202.8,202.3 217.6,226.6 232.4,202.3 
			232.4,231.7 237.2,231.7 237.2,191.2 233.7,191.2 		"/>
		<path class="st3" d="M276,214.9c0,7.5-4.5,12.1-11.7,12.1c-7.2,0-11.6-4.6-11.6-12.1v-23.7h-4.8v23.9c0,10,6.6,16.7,16.4,16.7
			c9.9,0,16.6-6.7,16.6-16.7v-23.9H276V214.9z"/>
		<path class="st3" d="M309.6,195.8c4.9,0,9.5,2.2,12.6,6l0.9,1.1l3.7-3.2l-0.9-1.1c-4.1-4.9-10.1-7.7-16.4-7.7
			c-11.6,0-21.1,9.2-21.1,20.5c0,11.2,9.5,20.4,21.1,20.4c6.4,0,12.3-2.8,16.4-7.6l0.9-1.1l-3.7-3.2l-0.9,1.1
			c-3.1,3.8-7.7,5.9-12.6,5.9c-8.9,0-16.2-7-16.2-15.6C293.4,202.8,300.7,195.8,309.6,195.8z"/>
		<polygon class="st3" points="361.4,211.2 339.6,211.2 339.6,191.2 334.8,191.2 334.8,231.7 339.6,231.7 339.6,215.9 361.4,215.9 
			361.4,231.7 366.2,231.7 366.2,191.2 361.4,191.2 		"/>
		<path class="st3" d="M394.8,191.2h-3.3l-18.2,40.4h5.3l4.8-10.9h19.6l4.9,10.9h5.2L394.8,191.2z M385.3,216.2l7.8-17.6l7.9,17.6
			H385.3z"/>
	</g>
	<g>
		<polygon class="st4" points="441.2,217 425.1,190.7 421.6,190.7 421.6,231.2 426.4,231.2 426.4,201.8 441.2,226.1 456,201.8 
			456,231.2 460.8,231.2 460.8,190.7 457.3,190.7 		"/>
		<polygon class="st4" points="476.3,213.8 495.8,213.8 495.8,209.2 476.3,209.2 476.3,195.5 499.1,195.5 499.1,190.7 471.5,190.7 
			471.5,231.2 500.2,231.2 500.2,226.5 476.3,226.5 		"/>
		<path class="st4" d="M521.7,190.7h-13v40.4h1.4l12.9,0c10.7-0.7,19-9.6,19-20.2C542,199.8,532.9,190.7,521.7,190.7z M513.5,226.5
			v-31h8.2c8.5,0,15.5,7,15.5,15.5c0,8-6.3,14.7-14.5,15.5H513.5z"/>
		<rect x="550.7" y="190.7" class="st4" width="4.8" height="40.4"/>
		<path class="st4" d="M583.2,190.7h-3.3l-18.2,40.4h5.3l4.8-10.9h19.6l4.6,10.9h5.2L583.2,190.7z M573.7,215.7l7.8-17.6l7.9,17.6
			H573.7z"/>
	</g>
	<g>
		<path class="st3" d="M198.2,244.4l1.5-0.5l0,14.2l-1.5,0L198.2,244.4z"/>
		<path class="st3" d="M210,247.6l0,10.5h-1.5l0-14.2l10.3,10.8l0-10.2l1.5-0.5l0,14.4L210,247.6z"/>
		<path class="st3" d="M235.3,245.5l0,12.6h-1.5l0-12.6l-4.8,0l0.5-1.4l10.7,0l-0.5,1.4H235.3z"/>
		<path class="st3" d="M256.4,256.7l-0.5,1.4l-8.1,0l0-14.1l8.6,0l-0.5,1.4l-6.6,0l0,5l5.8,0l-0.5,1.4l-5.3,0l0,4.9L256.4,256.7z"/>
		<path class="st3" d="M272.9,248c0,2.4-1.3,3.4-3.1,3.7l3.8,5.6l-1.2,1l-4.3-6.4c-0.1,0-0.2,0-0.3,0h-2.6l0,6.2h-1.5l0-14l4.1,0
			C270.6,244.1,272.9,244.8,272.9,248z M265.3,250.5h2.6c1.9,0,3.4-0.6,3.4-2.5c0-2-1.5-2.5-3.4-2.5h-2.6L265.3,250.5z"/>
		<path class="st3" d="M289.2,255l-6.3,0l-1.3,3.1l-1.5,0l6-14.2l6,14.2l-1.5,0L289.2,255z M286,247.5l-2.6,6.1l5.2,0L286,247.5z"/>
		<path class="st3" d="M305.3,258.4c-4,0-7.3-3.3-7.3-7.3c0-4,3.3-7.3,7.3-7.3c0,0,2.2-0.1,4.3,1.4v2c0,0-1.5-1.9-4.3-1.9
			c-3.2,0-5.8,2.7-5.8,5.9c0,3.2,2.5,5.9,5.8,5.9c2.6,0,4.1-1.7,4.2-1.9l0,2C307.5,258.5,305.3,258.4,305.3,258.4z"/>
		<path class="st3" d="M324,245.5l0,12.6h-1.5l0-12.6l-4.8,0l0.5-1.4l10.7,0l-0.5,1.4L324,245.5z"/>
		<path class="st3" d="M336.6,244.4l1.5-0.5l0,14.2h-1.5L336.6,244.4z"/>
		<path class="st3" d="M346.6,244.4l1.5-0.5l4.5,10.8l4.5-10.8l1.5,0.5l-6.1,13.9L346.6,244.4z"/>
		<path class="st3" d="M374.9,256.7l-0.5,1.4l-8.1,0l0-14.1l8.6,0l-0.5,1.4l-6.6,0v5l5.8,0l-0.5,1.4l-5.3,0l0,4.9L374.9,256.7z"/>
		<path class="st3" d="M403.9,250.1c1.8,0.6,4.6,1.5,4.6,4.1c0,2.7-1.7,4.1-5.2,4.1c-2.1,0-3.6-0.8-4.5-1.5V255
			c0.9,0.8,3,1.8,4.5,1.8c2.5,0,3.5-1.1,3.5-2.6c0-1.5-2-2.1-3.7-2.7c-1.6-0.5-4.2-1.5-4.2-3.9c0-2.8,2.3-3.8,4.5-3.8
			c2,0,3.4,0.7,4,1.4l0,1.7c-0.6-0.7-2.1-1.5-4-1.5c-1.8,0-2.9,0.7-2.9,2.4C400.5,248.9,402.3,249.5,403.9,250.1z"/>
		<path class="st3" d="M421.8,245.5l0,12.6h-1.5l0-12.6l-4.8,0l0.5-1.4l10.7,0l-0.5,1.4L421.8,245.5z"/>
		<path class="st3" d="M433.7,251.1c0-4,3.3-7.3,7.3-7.3c4,0,7.3,3.3,7.3,7.3c0,4-3.3,7.3-7.3,7.3
			C437,258.4,433.7,255.1,433.7,251.1z M446.8,251.1c0-3.2-2.5-5.9-5.8-5.9c-3.2,0-5.8,2.7-5.8,5.9c0,3.2,2.5,5.9,5.8,5.9
			C444.2,257,446.8,254.3,446.8,251.1z"/>
		<path class="st3" d="M465.6,248c0,2.4-1.3,3.4-3.1,3.7l3.8,5.6l-1.2,1l-4.3-6.4c-0.1,0-0.2,0-0.3,0H458l0,6.2h-1.5l0-14l4.1,0
			C463.3,244.1,465.6,244.8,465.6,248z M458,250.5h2.6c1.9,0,3.4-0.6,3.4-2.5c0-2-1.5-2.5-3.4-2.5H458V250.5z"/>
		<path class="st3" d="M479.3,258.1h-1.5l0-6.3l-5-7.4l1.5-0.5l4.2,6.3l4.2-6.3l1.5,0.5l-5,7.4L479.3,258.1z"/>
		<path class="st3" d="M497.2,245.5l0,12.6h-1.5l0-12.6l-4.8,0l0.5-1.4l10.7,0l-0.5,1.4L497.2,245.5z"/>
		<path class="st3" d="M518.3,256.7l-0.5,1.4l-8.1,0l0-14.1l8.6,0l-0.5,1.4l-6.6,0l0,5l5.8,0l-0.5,1.4l-5.3,0l0,4.9L518.3,256.7z"/>
		<path class="st3" d="M534.2,256.7l-0.5,1.4h-8.1l0-13.8l1.5-0.5l0,12.9L534.2,256.7z"/>
		<path class="st3" d="M550.5,256.7l-0.5,1.4l-8.1,0l0-13.8l1.5-0.5l0,12.9L550.5,256.7z"/>
		<path class="st3" d="M558.3,244.4l1.5-0.5l0,14.2h-1.5L558.3,244.4z"/>
		<path class="st3" d="M570,247.6v10.5h-1.5l0-14.2l10.3,10.8l0-10.2l1.5-0.5l0,14.4L570,247.6z"/>
		<path class="st3" d="M595.8,258.4c-4,0-7.3-3.3-7.3-7.3c0-4,3.2-7.3,7.3-7.3c0,0,2.4-0.2,4.5,1.5v2c0,0-1.5-2.1-4.5-2.1
			c-3.2,0-5.7,2.7-5.7,5.9c0,3.2,2.5,5.9,5.8,5.9c1.8,0,3.1-0.9,3.8-1.5v-2.6l-3.6,0l0.5-1.4l4.7,0v4.5
			C598.8,258.5,595.8,258.4,595.8,258.4z"/>
	</g>
</g>
</svg>
